<?xml version="1.0" encoding="iso-8859-1"?>
<!-- Generator: Adobe Illustrator 19.0.0, SVG Export Plug-In . SVG Version: 6.00 Build 0)  -->
<svg version="1.1" id="Capa_1" xmlns="http://www.w3.org/2000/svg" xmlns:xlink="http://www.w3.org/1999/xlink" x="0px" y="0px"
	 viewBox="0 0 512 512" style="enable-background:new 0 0 512 512;" xml:space="preserve">
<g>
	<g>
		<g>
			<polygon points="345.936,92.448 325.84,67.552 272,110.976 272,0 240,0 240,110.112 187.232,67.552 167.136,92.448 
				256.528,164.56 			"/>
			<polygon points="167.136,419.552 187.232,444.448 240,401.888 240,512 272,512 272,401.024 325.84,444.448 345.936,419.552 
				256.528,347.44 			"/>
			<rect x="128" y="192" width="384" height="32"/>
			<rect y="192" width="32" height="32"/>
			<rect x="64" y="192" width="32" height="32"/>
			<rect y="288" width="384" height="32"/>
			<rect x="480" y="288" width="32" height="32"/>
			<rect x="416" y="288" width="32" height="32"/>
		</g>
	</g>
</g>
<g>
</g>
<g>
</g>
<g>
</g>
<g>
</g>
<g>
</g>
<g>
</g>
<g>
</g>
<g>
</g>
<g>
</g>
<g>
</g>
<g>
</g>
<g>
</g>
<g>
</g>
<g>
</g>
<g>
</g>
</svg>
